<svg width="28" height="28" viewBox="0 0 28 28" fill="none" xmlns="http://www.w3.org/2000/svg">
<path d="M6.39441 2.32403C6.2911 2.19113 6.1607 2.08174 6.01186 2.00312C5.86303 1.9245 5.69917 1.87844 5.53117 1.86802C5.36316 1.85759 5.19487 1.88303 5.03745 1.94264C4.88004 2.00225 4.73711 2.09468 4.61816 2.21378L2.80866 4.02503C1.96341 4.87203 1.65191 6.07078 2.02116 7.12253C3.5537 11.4758 6.04667 15.4282 9.31516 18.6865C12.5735 21.955 16.5259 24.4479 20.8792 25.9805C21.9309 26.3498 23.1297 26.0383 23.9767 25.193L25.7862 23.3835C25.9053 23.2646 25.9977 23.1216 26.0573 22.9642C26.1169 22.8068 26.1423 22.6385 26.1319 22.4705C26.1215 22.3025 26.0754 22.1387 25.9968 21.9898C25.9182 21.841 25.8088 21.7106 25.6759 21.6073L21.6387 18.4678C21.4967 18.3577 21.3316 18.2812 21.1557 18.2442C20.9799 18.2073 20.798 18.2107 20.6237 18.2543L16.7912 19.2115C16.2796 19.3394 15.7436 19.3326 15.2355 19.1918C14.7273 19.0511 14.2643 18.7811 13.8914 18.4083L9.59341 14.1085C9.22025 13.7358 8.94998 13.2729 8.80891 12.7647C8.66783 12.2565 8.66077 11.7205 8.78841 11.2088L9.74741 7.37628C9.791 7.20197 9.79443 7.02004 9.75744 6.84421C9.72046 6.66839 9.64402 6.50325 9.53391 6.36128L6.39441 2.32403ZM3.29691 0.894278C3.60315 0.58794 3.97106 0.350256 4.3762 0.19701C4.78135 0.0437641 5.21446 -0.0215377 5.64678 0.00544078C6.07909 0.0324193 6.50073 0.151061 6.88368 0.353487C7.26663 0.555914 7.60213 0.837493 7.86791 1.17953L11.0074 5.21503C11.5832 5.95528 11.7862 6.91953 11.5587 7.82953L10.6014 11.662C10.5519 11.8605 10.5546 12.0685 10.6092 12.2656C10.6638 12.4628 10.7684 12.6425 10.9129 12.7873L15.2127 17.087C15.3576 17.2318 15.5376 17.3367 15.7351 17.3912C15.9326 17.4458 16.1409 17.4483 16.3397 17.3985L20.1704 16.4413C20.6195 16.329 21.0882 16.3203 21.5411 16.4158C21.9941 16.5113 22.4194 16.7085 22.7849 16.9925L26.8204 20.132C28.2712 21.2608 28.4042 23.4045 27.1057 24.7013L25.2962 26.5108C24.0012 27.8058 22.0657 28.3745 20.2614 27.7393C15.6435 26.1144 11.4506 23.4707 7.99391 20.0043C4.52766 16.5481 1.88397 12.3558 0.258909 7.73853C-0.374591 5.93603 0.194159 3.99878 1.48916 2.70378L3.29866 0.894278H3.29691Z" fill="white"/>
</svg>
