<?xml version="1.0" standalone="no"?>
<!DOCTYPE svg PUBLIC "-//W3C//DTD SVG 20010904//EN"
 "http://www.w3.org/TR/2001/REC-SVG-20010904/DTD/svg10.dtd">
<svg version="1.0" xmlns="http://www.w3.org/2000/svg"
 width="240.000000pt" height="43.000000pt" viewBox="0 0 240.000000 43.000000"
 preserveAspectRatio="xMidYMid meet">

<g transform="translate(0.000000,43.000000) scale(0.100000,-0.100000)"
fill="#2C5778" stroke="none">
<path d="M1500 240 l0 -180 26 0 c25 0 26 1 22 65 -1 36 -1 65 2 65 3 0 17
-28 31 -63 19 -46 31 -63 47 -65 29 -4 28 2 -8 82 l-30 66 30 60 30 60 -23 0
c-18 0 -28 -12 -49 -57 l-27 -58 0 103 c-1 102 -1 102 -26 102 l-25 0 0 -180z"/>
<path d="M112 383 c-34 -30 -37 -74 -7 -113 87 -120 101 -154 69 -167 -25 -9
-49 11 -49 41 1 21 -3 26 -20 24 -33 -5 -33 -60 1 -87 48 -37 115 -20 128 34
6 23 -15 92 -32 105 -4 3 -22 24 -40 47 -40 51 -41 88 -2 88 21 0 26 -5 28
-32 2 -25 8 -33 23 -33 29 0 27 73 -3 94 -30 21 -71 20 -96 -1z"/>
<path d="M296 369 c-3 -18 -14 -38 -24 -45 -16 -12 -16 -13 1 -19 15 -6 17
-21 17 -110 0 -81 3 -107 16 -119 18 -19 45 -21 62 -4 16 16 15 31 -2 25 -27
-11 -36 17 -36 110 0 93 0 93 25 93 32 0 34 27 3 32 -18 2 -24 11 -26 36 -4
41 -28 42 -36 1z"/>
<path d="M1121 374 c-12 -15 -21 -36 -21 -48 0 -24 31 -79 65 -116 51 -54 54
-114 6 -108 -21 2 -27 9 -29 36 -2 24 -8 32 -23 32 -15 0 -19 -7 -19 -35 0
-62 56 -93 113 -64 30 16 37 28 37 70 0 27 -11 48 -50 97 -58 72 -69 122 -26
122 24 0 36 -16 36 -51 0 -12 7 -19 20 -19 16 0 20 7 20 35 0 72 -86 104 -129
49z"/>
<path d="M622 332 c-30 -5 -50 -38 -58 -94 -9 -63 3 -131 27 -157 38 -41 109
-17 109 37 0 28 -26 29 -35 1 -5 -14 -14 -19 -28 -17 -18 2 -23 11 -25 46 l-3
42 45 0 c52 0 62 16 51 80 -9 51 -34 70 -83 62z m36 -75 c3 -34 1 -37 -22 -37
-21 0 -26 5 -26 24 0 66 43 77 48 13z"/>
<path d="M969 326 c-36 -18 -49 -53 -49 -137 0 -91 21 -129 71 -129 33 0 69
31 69 60 0 13 -7 20 -20 20 -13 0 -20 -7 -20 -20 0 -14 -7 -20 -24 -20 -21 0
-24 6 -28 41 -2 22 -2 42 1 45 2 2 24 4 48 4 l43 0 0 53 c0 39 -5 58 -17 69
-28 23 -48 27 -74 14z m45 -42 c3 -9 6 -27 6 -40 0 -19 -5 -24 -25 -24 -22 0
-25 4 -25 33 0 19 3 37 7 40 11 12 31 7 37 -9z"/>
<path d="M1701 323 c-32 -26 -30 -64 5 -114 70 -100 73 -109 34 -109 -13 0
-22 9 -26 25 -9 37 -34 32 -34 -6 0 -57 67 -80 108 -36 32 33 28 54 -23 118
-48 61 -58 99 -26 99 12 0 21 -9 25 -25 9 -35 36 -33 36 4 0 50 -59 76 -99 44z"/>
<path d="M412 198 c3 -129 4 -133 25 -136 22 -3 22 -1 25 115 2 97 6 118 18
118 8 0 16 -10 18 -22 2 -13 10 -23 18 -23 11 0 14 10 12 38 -2 30 -7 38 -26
40 -13 2 -30 -2 -38 -8 -10 -9 -14 -9 -14 -1 0 6 -9 11 -20 11 -20 0 -20 -5
-18 -132z"/>
<path d="M734 313 c7 -24 56 -240 56 -247 0 -15 39 -4 44 12 7 24 56 239 56
247 0 4 -10 5 -22 3 -21 -3 -25 -13 -39 -98 l-15 -95 -18 98 c-17 92 -19 97
-43 97 -18 0 -23 -4 -19 -17z"/>
<path d="M1300 214 c0 -63 5 -124 10 -135 12 -22 41 -25 71 -6 17 10 23 10 26
0 3 -7 11 -13 19 -13 11 0 14 25 14 135 0 128 -1 135 -20 135 -19 0 -20 -7
-20 -110 0 -98 -2 -110 -19 -120 -29 -15 -34 1 -33 104 1 109 -3 126 -29 126
-18 0 -19 -8 -19 -116z"/>
<path d="M1868 313 c-36 -41 -34 -197 3 -234 38 -38 109 -13 109 39 0 28 -26
29 -35 1 -5 -14 -14 -19 -28 -17 -18 2 -23 11 -25 46 l-3 42 44 0 c40 0 46 3
51 26 10 37 -4 93 -25 104 -28 16 -74 12 -91 -7z m70 -56 c3 -34 1 -37 -22
-37 -21 0 -26 5 -26 24 0 66 43 77 48 13z"/>
<path d="M2034 305 c-20 -31 -13 -54 37 -121 46 -60 50 -84 14 -84 -20 0 -25
5 -25 26 0 32 -33 30 -38 -3 -8 -57 80 -84 117 -37 19 24 19 28 5 62 -13 33
-26 52 -61 90 -7 7 -13 24 -13 38 0 32 37 34 42 2 2 -13 11 -24 21 -26 13 -3
17 3 17 25 0 39 -17 53 -62 53 -29 0 -41 -6 -54 -25z"/>
<path d="M2208 319 c-29 -17 -23 -70 15 -119 17 -24 38 -51 45 -61 16 -22 8
-39 -18 -39 -13 0 -22 9 -26 25 -9 37 -34 32 -34 -6 0 -37 23 -58 63 -59 31 0
67 31 67 59 0 21 -31 81 -42 81 -13 0 -50 71 -44 85 9 24 35 17 42 -10 3 -14
12 -25 20 -25 20 0 19 66 -2 74 -24 9 -67 7 -86 -5z"/>
</g>
</svg>
