<svg width="28" height="26" viewBox="0 0 28 26" fill="none" xmlns="http://www.w3.org/2000/svg">
<path d="M13.9998 25C13.1398 24.2374 12.1678 23.444 11.1399 22.6H11.1265C7.50653 19.64 3.40387 16.2907 1.59187 12.2774C0.996559 10.9996 0.681079 9.60953 0.666519 8.20003C0.662546 6.26601 1.43823 4.41201 2.81828 3.05705C4.19833 1.70209 6.06625 0.960555 7.99987 1.00003C9.57404 1.00251 11.1143 1.45747 12.4372 2.3107C13.0185 2.68798 13.5444 3.14437 13.9998 3.6667C14.4578 3.14642 14.984 2.6903 15.5638 2.3107C16.8862 1.4573 18.4261 1.00231 19.9998 1.00003C21.9334 0.960555 23.8014 1.70209 25.1814 3.05705C26.5616 4.41201 27.3372 6.26601 27.3332 8.20003C27.3196 9.61178 27.0041 11.0043 26.4078 12.284C24.5958 16.2974 20.4945 19.6454 16.8745 22.6L16.8612 22.6107C15.8318 23.4494 14.8612 24.2427 14.0012 25.0107L13.9998 25ZM7.99987 3.6667C6.75788 3.65115 5.55997 4.12649 4.66653 4.98937C3.80572 5.83491 3.32461 6.99342 3.33309 8.20003C3.34831 9.22737 3.58097 10.2398 4.01587 11.1707C4.87121 12.9023 6.02535 14.4694 7.4252 15.8C8.74653 17.1334 10.2665 18.424 11.5812 19.5094C11.9452 19.8094 12.3158 20.112 12.6865 20.4147L12.9198 20.6054C13.2758 20.896 13.6438 21.1974 13.9998 21.4934L14.0172 21.4774L14.0252 21.4707H14.0332L14.0452 21.4614H14.0518H14.0585L14.0825 21.4414L14.1372 21.3974L14.1465 21.3894L14.1612 21.3787H14.1692L14.1812 21.368L15.0665 20.6414L15.2985 20.4507C15.6732 20.1454 16.0438 19.8427 16.4078 19.5427C17.7225 18.4574 19.2438 17.168 20.5652 15.828C21.9653 14.4982 23.1194 12.9314 23.9745 11.2C24.4173 10.2611 24.6533 9.23804 24.6666 8.20003C24.6721 6.99714 24.1912 5.84309 23.3332 5.00003C22.4414 4.13326 21.2433 3.65401 19.9998 3.6667C18.4824 3.65379 17.0318 4.28985 16.0132 5.4147L13.9998 7.7347L11.9865 5.4147C10.968 4.28985 9.51731 3.65379 7.99987 3.6667Z" fill="#2C5778"/>
</svg>
