<svg width="18" height="17" viewBox="0 0 18 17" fill="none" xmlns="http://www.w3.org/2000/svg">
<path d="M15.677 16.6071L9.962 10.8911C7.4196 12.6986 3.91642 12.2565 1.90285 9.87402C-0.11071 7.49162 0.0371398 3.96373 2.24298 1.75814C4.44824 -0.448412 7.9765 -0.596902 10.3594 1.41656C12.7422 3.43001 13.1846 6.93359 11.377 9.47612L17.092 15.1921L15.678 16.6061L15.677 16.6071ZM6.48498 2.00013C4.58868 1.9997 2.95267 3.33082 2.56745 5.18757C2.18224 7.04432 3.15369 8.91642 4.89366 9.67042C6.63362 10.4243 8.6639 9.85302 9.7552 8.30222C10.8466 6.75141 10.699 4.64746 9.402 3.26414L10.007 3.86414L9.325 3.18414L9.313 3.17214C8.5648 2.41932 7.5464 1.99727 6.48498 2.00013Z" fill="#2C5778"/>
</svg>
