<svg width="28" height="20" viewBox="0 0 28 20" fill="none" xmlns="http://www.w3.org/2000/svg">
<path d="M26 0H2C1.46957 0 0.960859 0.210714 0.585786 0.585786C0.210714 0.960859 0 1.46957 0 2V18C0 18.5304 0.210714 19.0391 0.585786 19.4142C0.960859 19.7893 1.46957 20 2 20H26C26.5304 20 27.0391 19.7893 27.4142 19.4142C27.7893 19.0391 28 18.5304 28 18V2C28 1.46957 27.7893 0.960859 27.4142 0.585786C27.0391 0.210714 26.5304 0 26 0ZM23.8 2L14 8.78L4.2 2H23.8ZM2 18V2.91L13.43 10.82C13.5974 10.9361 13.7963 10.9984 14 10.9984C14.2037 10.9984 14.4026 10.9361 14.57 10.82L26 2.91V18H2Z" fill="white"/>
</svg>
