<svg width="28" height="26" viewBox="0 0 28 26" fill="none" xmlns="http://www.w3.org/2000/svg">
<path d="M14.0003 25C13.1403 24.2374 12.1683 23.444 11.1404 22.6H11.127C7.50702 19.64 3.40435 16.2907 1.59235 12.2774C0.997047 10.9996 0.681567 9.60953 0.667007 8.20003C0.663034 6.26601 1.43871 4.41201 2.81877 3.05705C4.19882 1.70209 6.06674 0.960555 8.00035 1.00003C9.57453 1.00251 11.1148 1.45747 12.4377 2.3107C13.019 2.68798 13.5449 3.14437 14.0003 3.6667C14.4583 3.14642 14.9845 2.6903 15.5643 2.3107C16.8867 1.4573 18.4266 1.00231 20.0003 1.00003C21.9339 0.960555 23.8019 1.70209 25.1819 3.05705C26.5621 4.41201 27.3377 6.26601 27.3337 8.20003C27.3201 9.61178 27.0046 11.0043 26.4083 12.284C24.5963 16.2974 20.495 19.6454 16.875 22.6L16.8617 22.6107C15.8323 23.4494 14.8617 24.2427 14.0017 25.0107L14.0003 25ZM8.00035 3.6667C6.75837 3.65115 5.56046 4.12649 4.66702 4.98937C3.80621 5.83491 3.3251 6.99342 3.33358 8.20003C3.34879 9.22737 3.58146 10.2398 4.01635 11.1707C4.8717 12.9023 6.02583 14.4694 7.42569 15.8C8.74702 17.1334 10.267 18.424 11.5817 19.5094C11.9457 19.8094 12.3163 20.112 12.687 20.4147L12.9203 20.6054C13.2763 20.896 13.6443 21.1974 14.0003 21.4934L14.0177 21.4774L14.0257 21.4707H14.0337L14.0457 21.4614H14.0523H14.059L14.083 21.4414L14.1377 21.3974L14.147 21.3894L14.1617 21.3787H14.1697L14.1817 21.368L15.067 20.6414L15.299 20.4507C15.6737 20.1454 16.0443 19.8427 16.4083 19.5427C17.723 18.4574 19.2443 17.168 20.5657 15.828C21.9658 14.4982 23.1199 12.9314 23.975 11.2C24.4178 10.2611 24.6538 9.23804 24.6671 8.20003C24.6726 6.99714 24.1917 5.84309 23.3337 5.00003C22.4419 4.13326 21.2438 3.65401 20.0003 3.6667C18.4829 3.65379 17.0323 4.28985 16.0137 5.4147L14.0003 7.7347L11.987 5.4147C10.9684 4.28985 9.51779 3.65379 8.00035 3.6667Z" fill="#2C5778"/>
</svg>
